Coordinates
version=1
nRows=11
nColumns=42
inDegrees=yes

Units are S.I. units (second, meters, Newtons, ...)
If the header above contains a line with 'inDegrees', this indicates whether rotational values are in degrees (yes) or radians (no).

endheader
time	pelvis_tilt	pelvis_list	pelvis_rotation	pelvis_tx	pelvis_ty	pelvis_tz	hip_flexion_r	hip_adduction_r	hip_rotation_r	knee_angle_r	knee_angle_r_beta	ankle_angle_r	subtalar_angle_r	mtp_angle_r	hip_flexion_l	hip_adduction_l	hip_rotation_l	knee_angle_l	knee_angle_l_beta	ankle_angle_l	subtalar_angle_l	mtp_angle_l	lumbar_extension	lumbar_bending	lumbar_rotation	sh_tx_r	sh_ty_r	sh_tz_r	sh_plane_elev_r	sh_elev_r	sh_axial_rot_r	elbow_flex_r	pro_sup_r	sh_tx_l	sh_ty_l	sh_tz_l	sh_plane_elev_l	sh_elev_l	sh_axial_rot_l	elbow_flex_l	pro_sup_l
      0.00000000	     -8.74019690	     -0.01425069	     -1.24688991	      0.29782582	      0.92915294	     -0.03531426	      8.86685729	     -4.84318134	      1.60909897	      7.81113472	      0.13633002	     -1.07016320	    -10.32149609	     -4.97522756	      8.70478420	     -3.69313515	     -7.03457301	      7.65987794	      0.13369009	     10.55390870	     -3.99452528	     -4.97522756	      0.14035196	     -3.87455036	      3.15014046	     -0.01905597	      0.02745044	     -0.00658262	      2.40095908	     52.79119886	     -1.21641957	    106.02950124	     80.87426752	     -0.00261416	     -0.00539439	     -0.00597493	     26.97278329	     12.70416304	      3.22120101	     34.80019961	     72.37807117
      0.01694910	    -10.56849299	      0.29621517	     -1.56676080	      0.29971700	      0.92474801	     -0.03518717	     10.59534806	     -5.36544863	      1.67672593	      7.63658343	      0.13328352	      2.53868005	     -5.32426904	     -5.53013900	     10.52774832	     -3.09636852	     -8.14720598	      6.70590015	      0.11704004	     10.89764727	     -2.03198671	     -5.53013900	      2.98084937	     -4.11617744	      3.21504036	     -0.01901715	      0.02834855	     -0.00654493	      4.48133967	     57.67191572	      0.52928331	    105.03819407	     89.00765628	     -0.00439207	     -0.00619880	     -0.00586378	     25.79780774	     13.26041812	      3.29975909	     32.28975606	     71.78239907
      0.03389830	    -10.73574354	      0.88466679	     -2.03073552	      0.29985853	      0.92646096	     -0.03439984	     10.54774685	     -6.22758744	      1.50339176	      6.84840255	      0.11952717	      3.17714910	     -4.20351908	     -5.49516796	     10.09394693	     -2.55949915	     -9.54958168	      5.62752643	      0.09821886	     10.30561847	     -1.32303535	     -5.49516796	      3.41069923	     -5.00016542	      4.25923239	     -0.01861208	      0.02834164	     -0.00616940	      4.72981641	     61.32691912	      0.83746996	    104.09668747	     89.02833686	     -0.00261284	     -0.00458298	     -0.00548519	     25.53118207	     13.80981961	      4.08968715	     31.65499223	     71.53315171
      0.05084750	    -10.39782515	      1.25790855	     -2.20424821	      0.29980493	      0.93005014	     -0.03416713	      9.99454933	     -6.71601624	      1.49899998	      6.19574672	      0.10813618	      3.68660219	     -3.32073257	     -5.48253041	      8.98221506	     -2.05498839	     -9.99431611	      4.31527761	      0.07531580	      9.76918952	     -1.09781657	     -5.48253041	      3.34027301	     -5.62773752	      4.71066053	     -0.01675457	      0.02691093	     -0.00579297	      4.89195787	     63.79707569	      0.94465170	    102.83491315	     89.56405404	     -0.00220996	     -0.00440535	     -0.00526573	     25.43289888	     14.09304013	      4.05609542	     31.57654236	     71.36496997
      0.06779660	     -9.90729152	      1.32606795	     -2.30193500	      0.29958435	      0.93221175	     -0.03412233	      9.27027197	     -6.80777847	      1.55969435	      5.65697380	      0.09873282	      4.01394184	     -3.00243562	     -5.80633332	      7.97570924	     -1.85404458	    -10.10848142	      3.41602133	      0.05962082	      9.57585463	     -0.71734349	     -5.80633332	      2.84219577	     -5.82918515	      4.38928498	     -0.01532456	      0.02701544	     -0.00549753	      6.14746934	     65.85047908	      0.43390208	    102.21980835	     89.13759608	     -0.00344742	     -0.00543659	     -0.00521230	     24.64743508	     14.00371246	      3.86957473	     32.12880526	     69.28429702
      0.08474580	     -9.47011182	      1.30001459	     -2.18037168	      0.29909484	      0.93220486	     -0.03429302	      8.64261547	     -6.75119556	      1.58034940	      5.34424551	      0.09327468	      4.35477518	     -2.84516804	     -5.93467262	      7.28035372	     -1.75483173	     -9.72494391	      2.91190841	      0.05082239	      9.29612921	     -0.83028837	     -5.93467262	      2.53621638	     -6.01691447	      3.92583965	     -0.01322923	      0.02682436	     -0.00529420	      6.80643841	     67.76520103	      0.05428789	    102.65625877	     89.28747662	     -0.00386221	     -0.00603762	     -0.00517554	     24.52791881	     13.89420448	      3.19715448	     32.43234099	     67.85339961
      0.10169490	     -9.08771293	      1.24690024	     -1.99733424	      0.29870533	      0.93110082	     -0.03439844	      8.05564793	     -6.70304961	      1.53380873	      5.08153122	      0.08868945	      4.64408394	     -3.01601546	     -6.04150968	      6.75547524	     -1.72341773	     -9.41400500	      2.64912027	      0.04623587	      9.36881945	     -0.62154213	     -6.04150968	      2.44557237	     -6.25311871	      3.57452024	     -0.01140511	      0.02670379	     -0.00521290	      6.35697275	     69.50172284	     -0.09432344	    103.51290877	     88.26174729	     -0.00334415	     -0.00560414	     -0.00512091	     24.13840750	     13.90751359	      3.29805455	     32.19295940	     67.14078684
      0.11864410	     -8.77702011	      1.16787206	     -1.74372147	      0.29904215	      0.93026253	     -0.03461674	      7.51141783	     -6.63141215	      1.38412762	      4.85256724	      0.08469328	      4.81214541	     -3.05527221	     -5.93972803	      6.35614286	     -1.74027578	     -8.92832437	      2.49325459	      0.04351550	      9.32430820	     -0.70520714	     -5.93972803	      2.23115461	     -6.44775328	      3.16163525	     -0.01009034	      0.02663100	     -0.00519850	      4.82807845	     70.96789091	     -0.24639700	    104.57519251	     88.60958830	     -0.00404740	     -0.00501920	     -0.00506738	     23.76416750	     14.00261325	      3.13191620	     32.01984690	     66.71711476
      0.13559320	     -8.69351312	      1.10019668	     -1.49799983	      0.30118846	      0.92929713	     -0.03477243	      7.18476264	     -6.57997355	      1.15718787	      4.60406881	      0.08035616	      4.83258711	     -3.07667415	     -5.96205568	      6.20078727	     -1.80152252	     -8.73995574	      2.43775189	      0.04254680	      9.48344982	     -0.19876856	     -5.96205568	      2.29908561	     -6.64813928	      2.52949042	     -0.00889943	      0.02769398	     -0.00499577	      3.40806908	     71.96271231	     -0.62060722	    105.23978385	     87.88248991	     -0.00660971	     -0.00373467	     -0.00497635	     23.31493462	     14.12065651	      3.38096447	     31.01549897	     66.33688138
      0.15254240	     -8.24304355	      0.98609183	     -1.30545831	      0.30439279	      0.92897470	     -0.03510349	      6.35177906	     -6.49317864	      1.13593386	      4.25192238	      0.07421005	      4.83798975	     -3.13506168	     -6.46806953	      5.46766194	     -1.87828632	     -8.05180390	      2.17930873	      0.03803611	      9.53169149	     -0.50741919	     -6.46806953	      1.95777571	     -6.76813791	      4.22367778	     -0.01165331	      0.02638891	     -0.00508165	     -0.82818646	     73.86087685	     -0.58433985	    106.92467269	     85.30329358	     -0.00301695	     -0.00219262	     -0.00497468	     25.17014657	     14.34367495	      3.77941481	     30.53053142	     61.59221245
      0.16949150	     -8.02902059	      0.88936897	     -1.16239923	      0.30658029	      0.92941292	     -0.03528426	      5.80221154	     -6.40886743	      1.03467267	      3.93367064	      0.06865550	      4.91182295	     -2.94414916	     -6.46363446	      4.99526084	     -1.98617360	     -7.70827602	      1.98959516	      0.03472499	      9.69812405	     -0.23919700	     -6.46363446	      1.96660834	     -6.82014191	      4.10128551	     -0.01196413	      0.02659225	     -0.00512809	     -2.00750190	     75.02467417	     -1.31610575	    107.43377646	     84.89413153	     -0.00432073	     -0.00081219	     -0.00479830	     24.53046378	     14.27176267	      4.36118370	     29.50804975	     61.37716648
